<svg width="120" height="120" viewBox="0 0 120 120" xmlns="http://www.w3.org/2000/svg">
  <circle cx="60" cy="60" r="55" fill="#003366"/>
  <g transform="translate(30, 15)">
    <path d="M 30 30 C 30 15 45 10 55 10 C 65 10 75 15 75 25 C 75 35 65 40 55 45 L 45 50 C 35 55 25 60 25 70 C 25 80 35 90 50 90 C 65 90 70 85 70 75" 
          stroke="#ffffff" stroke-width="5" fill="none" stroke-linecap="round" stroke-linejoin="round"/>
    <circle cx="55" cy="10" r="4" fill="#0066CC"/>
    <circle cx="75" cy="25" r="4" fill="#0066CC"/>
    <circle cx="55" cy="45" r="4" fill="#0066CC"/>
    <circle cx="45" cy="50" r="4" fill="#0066CC"/>
    <circle cx="25" cy="70" r="4" fill="#0066CC"/>
    <circle cx="50" cy="90" r="4" fill="#0066CC"/>
    <line x1="55" y1="10" x2="75" y2="25" stroke="#0066CC" stroke-width="2.5"/>
    <line x1="75" y1="25" x2="55" y2="45" stroke="#0066CC" stroke-width="2.5"/>
    <line x1="55" y1="45" x2="45" y2="50" stroke="#0066CC" stroke-width="2.5"/>
    <line x1="45" y1="50" x2="25" y2="70" stroke="#0066CC" stroke-width="2.5"/>
    <line x1="25" y1="70" x2="50" y2="90" stroke="#0066CC" stroke-width="2.5"/>
  </g>
</svg>
